<?xml version="1.0" encoding="utf-8"?>
<!-- Generator: Adobe Illustrator 19.0.0, SVG Export Plug-In . SVG Version: 6.00 Build 0)  -->
<svg version="1.1" id="Layer_1" xmlns="http://www.w3.org/2000/svg" xmlns:xlink="http://www.w3.org/1999/xlink" x="0px" y="0px"
	 viewBox="0 0 128 128" style="enable-background:new 0 0 128 128;" xml:space="preserve">
<style type="text/css">
	.st0{fill:none;stroke:#590E59;stroke-width:4;stroke-miterlimit:10;}
	.st1{fill:none;stroke:#9241A5;stroke-width:4;stroke-miterlimit:10;}
</style>
<g id="XMLID_2_">
	<path id="XMLID_1_" class="st0" d="M16.3,66.9c-0.9-3-1.8-7.6-1.1-13.1c0.2-1.5,0.8-5.1,2.7-9.3c2.6-5.7,6.2-9.2,7.2-10.2
		c2.3-2.2,5.3-5,10.4-6.6c2.1-0.6,6.5-1.7,11.8-0.5c5.1,1.1,8.3,3.7,10.6,5.5c4.7,3.8,6.9,7.9,7.4,8.8c1,1.9,3.4,6.6,3,12.6
		c-0.4,6.1-3.2,8-1.7,11.7c0.4,0.9,1,1.8,5.5,5.4c3.5,2.8,6.6,5,8.8,6.4"/>
	<path id="XMLID_15_" class="st1" d="M19.7,72.4c1.3,1.6,3.5,4,6.6,5.7c2.7,1.5,4.9,1.9,8.2,2.4c3.2,0.5,5.7,1,9.1,0.4
		c4-0.7,7-2.3,8.5-3.2c3.5-2.1,6.2-4.6,8.2-6.9"/>
	<path id="XMLID_16_" class="st0" d="M93.5,75.9c-1.1,0.6-2.5,1.5-3.8,3c-1,1.1-3.7,4.3-3.1,8.4c0.7,4.7,5.2,7.1,6,7.5
		c1,0.5,5,2.5,9.8,0.9c0.9-0.3,5.3-1.9,6.9-6.3c1.5-4.2-0.6-7.8-1.3-9c-1.5-2.6-3.6-4.1-4.7-4.8"/>
</g>
<g id="XMLID_3_">
</g>
<g id="XMLID_4_">
</g>
<g id="XMLID_5_">
</g>
<g id="XMLID_6_">
</g>
<g id="XMLID_7_">
</g>
<g id="XMLID_8_">
</g>
<g id="XMLID_9_">
</g>
<g id="XMLID_10_">
</g>
<g id="XMLID_11_">
</g>
<g id="XMLID_12_">
</g>
<g id="XMLID_13_">
</g>
<g id="XMLID_14_">
</g>
<g id="XMLID_17_">
</g>
<g id="XMLID_18_">
</g>
<g id="XMLID_19_">
</g>
</svg>
